<?xml version="1.0" standalone="no"?>
<!DOCTYPE svg PUBLIC "-//W3C//DTD SVG 20010904//EN"
 "http://www.w3.org/TR/2001/REC-SVG-20010904/DTD/svg10.dtd">
<svg version="1.0" xmlns="http://www.w3.org/2000/svg"
 width="543.000000pt" height="362.000000pt" viewBox="0 0 543.000000 362.000000"
 preserveAspectRatio="xMidYMid meet">

<g transform="translate(0.000000,362.000000) scale(0.100000,-0.100000)"
fill="#000000" stroke="none">
<path d="M2893 2851 c-41 -26 -71 -80 -51 -92 7 -5 19 -9 26 -9 6 0 12 -4 12
-10 0 -6 -111 -10 -313 -10 -328 0 -337 -1 -337 -45 1 -48 8 -50 195 -53 174
-3 176 -3 192 -28 20 -31 5 -70 -33 -84 -14 -6 -130 -10 -258 -10 -245 0 -256
-2 -256 -46 0 -54 2 -54 389 -54 340 0 359 -1 375 -19 25 -27 17 -72 -14 -88
-19 -10 -123 -13 -420 -13 -295 0 -399 -3 -408 -12 -15 -15 -15 -61 0 -76 8
-8 58 -12 159 -12 168 0 184 -6 177 -67 l-4 -33 759 0 758 0 -7 23 c-41 132
-110 250 -209 355 -118 126 -248 204 -409 247 -76 20 -79 22 -92 60 -23 67
-54 89 -131 93 -55 2 -74 -1 -100 -17z"/>
<path d="M1530 2710 c-15 -28 -3 -59 27 -71 13 -5 64 -9 111 -9 97 0 132 14
132 54 0 40 -17 46 -142 46 -108 0 -118 -2 -128 -20z"/>
<path d="M1902 2718 c-19 -19 -14 -55 10 -72 28 -20 142 -21 178 -3 28 14 38
51 20 73 -16 18 -190 20 -208 2z"/>
<path d="M1396 2489 c-8 -12 -12 -29 -9 -38 14 -39 29 -41 290 -41 l253 0 16
25 c14 21 15 31 6 50 l-12 25 -264 0 c-258 0 -265 -1 -280 -21z"/>
<path d="M1550 2288 c-28 -10 -36 -54 -15 -78 16 -18 32 -20 162 -20 80 0 153
5 164 10 22 13 26 62 5 79 -15 13 -285 20 -316 9z"/>
<path d="M2052 2007 c-29 -31 -28 -68 4 -98 l26 -24 289 -3 c159 -2 289 -5
289 -8 0 -3 -27 -46 -61 -94 -66 -97 -124 -156 -164 -166 -13 -3 -96 1 -184
10 -195 20 -260 10 -261 -39 -1 -70 123 -353 184 -418 65 -71 100 -32 90 99
-5 60 -3 84 6 89 7 4 63 9 124 11 190 4 265 35 461 189 66 52 125 95 132 95
16 0 209 -241 256 -321 53 -90 51 -133 -9 -253 -67 -132 -56 -158 84 -198 87
-25 279 -36 322 -18 32 13 46 45 35 79 -3 12 -42 48 -84 81 -89 67 -97 85 -75
164 36 131 44 182 34 241 -20 123 -104 253 -248 385 l-77 70 311 0 c201 0 322
4 343 11 54 19 69 79 28 117 l-23 22 -905 0 -906 0 -21 -23z"/>
<path d="M1697 2004 c-12 -12 -8 -61 6 -72 15 -13 124 -19 155 -8 19 6 23 14
20 44 l-3 37 -85 3 c-47 1 -89 0 -93 -4z"/>
</g>
</svg>
