<?xml version="1.0" standalone="no"?>
<!DOCTYPE svg PUBLIC "-//W3C//DTD SVG 20010904//EN"
 "http://www.w3.org/TR/2001/REC-SVG-20010904/DTD/svg10.dtd">
<svg version="1.0" xmlns="http://www.w3.org/2000/svg"
 width="64.000000pt" height="64.000000pt" viewBox="0 0 64.000000 64.000000"
 preserveAspectRatio="xMidYMid meet">

<g transform="translate(0.000000,64.000000) scale(0.100000,-0.100000)"
fill="#000000" stroke="none">
<path d="M163 512 c-70 -25 -117 -63 -142 -115 -25 -51 -26 -73 -6 -84 24 -14
24 -83 0 -83 -34 0 2 -86 47 -112 33 -19 483 -19 516 0 45 26 81 112 47 112
-25 0 -24 66 1 85 42 30 -25 138 -113 181 -53 26 -69 29 -178 32 -96 2 -130
-1 -172 -16z m187 -12 c-8 -5 -22 -7 -31 -5 -16 5 -77 -50 -67 -61 4 -3 40 13
81 36 58 31 81 39 102 34 18 -4 23 -9 14 -14 -7 -5 -17 -6 -24 -4 -13 5 -61
-43 -52 -52 3 -3 30 7 59 24 l53 30 35 -18 c19 -10 43 -26 52 -37 22 -24 49
-89 41 -97 -8 -8 -578 -8 -586 0 -8 8 19 73 41 97 21 24 105 67 129 67 14 -1
13 -4 -7 -15 -14 -8 -33 -14 -43 -15 -17 0 -35 -26 -25 -36 3 -3 39 13 79 35
55 31 85 41 119 41 33 0 41 -3 30 -10z m-221 -208 c28 -3 46 0 51 8 6 9 17 6
42 -14 43 -32 53 -32 96 0 25 20 36 24 42 14 5 -8 20 -10 46 -6 22 3 46 5 54
5 8 -1 41 -2 73 -3 31 0 57 -4 57 -7 0 -14 -37 -19 -151 -19 -78 0 -118 -4
-114 -10 4 -6 60 -10 136 -10 84 0 128 -4 124 -10 -3 -5 -15 -10 -26 -10 -11
0 -17 -4 -14 -10 3 -5 22 -10 41 -10 19 0 34 -4 34 -9 0 -21 -44 -61 -78 -71
-48 -13 -396 -13 -444 0 -34 10 -78 50 -78 71 0 5 108 9 239 9 149 0 242 4
246 10 4 7 -71 10 -219 10 -139 0 -227 4 -231 10 -4 6 22 10 72 10 43 0 85 5
93 10 10 7 -8 10 -62 10 -86 0 -108 6 -108 27 0 11 5 13 18 7 9 -4 37 -9 61
-12z m163 3 c-16 -12 -26 -13 -42 -5 -29 16 -25 20 22 20 41 0 42 0 20 -15z"/>
</g>
</svg>
